<svg width="24" height="24" viewBox="0 0 24 24" fill="none" xmlns="http://www.w3.org/2000/svg">
<path d="M20.3591 8.35783L20.3578 8.35906C20.2649 8.45227 20.1571 8.5 20 8.5H14C13.8429 8.5 13.7351 8.45227 13.6422 8.35906L13.6409 8.35783C13.5477 8.26495 13.5 8.15713 13.5 8V4C13.5 3.84285 13.5478 3.73434 13.6416 3.64055C13.7343 3.5478 13.8423 3.5 14 3.5H20C20.1577 3.5 20.2657 3.5478 20.3584 3.64055C20.4522 3.73434 20.5 3.84285 20.5 4V8C20.5 8.15713 20.4523 8.26495 20.3591 8.35783ZM3.64217 12.3591L3.64094 12.3578C3.54773 12.2649 3.5 12.1571 3.5 12V4C3.5 3.84285 3.54777 3.73434 3.64155 3.64055C3.73431 3.5478 3.84232 3.5 4 3.5H10C10.1574 3.5 10.2659 3.54762 10.3594 3.64055C10.4524 3.73407 10.5 3.84264 10.5 4V12C10.5 12.1577 10.4522 12.2657 10.3594 12.3584C10.2657 12.4522 10.1572 12.5 10 12.5H4C3.84287 12.5 3.73505 12.4523 3.64217 12.3591ZM20.3591 20.3578L20.3578 20.3591C20.2649 20.4523 20.1571 20.5 20 20.5H14C13.8429 20.5 13.7351 20.4523 13.6422 20.3591L13.6409 20.3578C13.5477 20.2649 13.5 20.1571 13.5 20V12C13.5 11.8428 13.5478 11.7343 13.6416 11.6406C13.7343 11.5478 13.8423 11.5 14 11.5H20C20.1577 11.5 20.2657 11.5478 20.3584 11.6406C20.4522 11.7343 20.5 11.8428 20.5 12V20C20.5 20.1571 20.4523 20.2649 20.3591 20.3578ZM3.64217 20.3591L3.64094 20.3578C3.54773 20.2649 3.5 20.1571 3.5 20V16C3.5 15.8428 3.54777 15.7343 3.64155 15.6406C3.73431 15.5478 3.84232 15.5 4 15.5H10C10.1574 15.5 10.2659 15.5476 10.3594 15.6406C10.4524 15.7341 10.5 15.8426 10.5 16V20C10.5 20.1577 10.4522 20.2657 10.3594 20.3584C10.2657 20.4522 10.1572 20.5 10 20.5H4C3.84287 20.5 3.73505 20.4523 3.64217 20.3591Z" fill="white" stroke="white"/>
</svg>
