<svg width="26" height="26" viewBox="0 0 26 26" fill="none" xmlns="http://www.w3.org/2000/svg">
<path d="M15.75 10.6C14.754 10.6 13.95 9.796 13.95 8.8V2.8C13.95 1.804 14.754 1 15.75 1C16.746 1 17.55 1.804 17.55 2.8V8.8C17.55 9.796 16.746 10.6 15.75 10.6Z" fill="white"/>
<path d="M22.95 10.6H21.15V8.8C21.15 7.804 21.954 7 22.95 7C23.946 7 24.75 7.804 24.75 8.8C24.75 9.796 23.946 10.6 22.95 10.6Z" fill="white"/>
<path d="M9.75 15.4C10.746 15.4 11.55 16.204 11.55 17.2V23.2C11.55 24.196 10.746 25 9.75 25C8.754 25 7.95 24.196 7.95 23.2V17.2C7.95 16.204 8.754 15.4 9.75 15.4Z" fill="white"/>
<path d="M2.55 15.4H4.35V17.2C4.35 18.196 3.546 19 2.55 19C1.554 19 0.75 18.196 0.75 17.2C0.75 16.204 1.554 15.4 2.55 15.4Z" fill="white"/>
<path d="M15.15 16C15.15 15.004 15.954 14.2 16.95 14.2H22.95C23.946 14.2 24.75 15.004 24.75 16C24.75 16.996 23.946 17.8 22.95 17.8H16.95C15.954 17.8 15.15 16.996 15.15 16Z" fill="white"/>
<path d="M16.95 21.4H15.15V23.2C15.15 24.196 15.954 25 16.95 25C17.946 25 18.75 24.196 18.75 23.2C18.75 22.204 17.946 21.4 16.95 21.4Z" fill="white"/>
<path d="M10.35 10C10.35 9.004 9.546 8.2 8.55 8.2H2.55C1.554 8.2 0.75 9.004 0.75 10C0.75 10.996 1.554 11.8 2.55 11.8H8.55C9.546 11.8 10.35 10.996 10.35 10Z" fill="white"/>
<path d="M8.55 5.8H10.35V3.4C10.35 2.072 9.546 1 8.55 1C7.554 1 6.75 2.072 6.75 3.4C6.75 4.728 7.554 5.8 8.55 5.8Z" fill="white"/>
<path d="M15.75 10.6C14.754 10.6 13.95 9.796 13.95 8.8V2.8C13.95 1.804 14.754 1 15.75 1C16.746 1 17.55 1.804 17.55 2.8V8.8C17.55 9.796 16.746 10.6 15.75 10.6Z" stroke="white" stroke-linecap="round" stroke-linejoin="round"/>
<path d="M22.95 10.6H21.15V8.8C21.15 7.804 21.954 7 22.95 7C23.946 7 24.75 7.804 24.75 8.8C24.75 9.796 23.946 10.6 22.95 10.6Z" stroke="white" stroke-linecap="round" stroke-linejoin="round"/>
<path d="M9.75 15.4C10.746 15.4 11.55 16.204 11.55 17.2V23.2C11.55 24.196 10.746 25 9.75 25C8.754 25 7.95 24.196 7.95 23.2V17.2C7.95 16.204 8.754 15.4 9.75 15.4Z" stroke="white" stroke-linecap="round" stroke-linejoin="round"/>
<path d="M2.55 15.4H4.35V17.2C4.35 18.196 3.546 19 2.55 19C1.554 19 0.75 18.196 0.75 17.2C0.75 16.204 1.554 15.4 2.55 15.4Z" stroke="white" stroke-linecap="round" stroke-linejoin="round"/>
<path d="M15.15 16C15.15 15.004 15.954 14.2 16.95 14.2H22.95C23.946 14.2 24.75 15.004 24.75 16C24.75 16.996 23.946 17.8 22.95 17.8H16.95C15.954 17.8 15.15 16.996 15.15 16Z" stroke="white" stroke-linecap="round" stroke-linejoin="round"/>
<path d="M16.95 21.4H15.15V23.2C15.15 24.196 15.954 25 16.95 25C17.946 25 18.75 24.196 18.75 23.2C18.75 22.204 17.946 21.4 16.95 21.4Z" stroke="white" stroke-linecap="round" stroke-linejoin="round"/>
<path d="M10.35 10C10.35 9.004 9.546 8.2 8.55 8.2H2.55C1.554 8.2 0.75 9.004 0.75 10C0.75 10.996 1.554 11.8 2.55 11.8H8.55C9.546 11.8 10.35 10.996 10.35 10Z" stroke="white" stroke-linecap="round" stroke-linejoin="round"/>
<path d="M8.55 5.8H10.35V3.4C10.35 2.072 9.546 1 8.55 1C7.554 1 6.75 2.072 6.75 3.4C6.75 4.728 7.554 5.8 8.55 5.8Z" stroke="white" stroke-linecap="round" stroke-linejoin="round"/>
</svg>
