<svg width="400" height="400" viewBox="0 0 400 400" fill="none" xmlns="http://www.w3.org/2000/svg">
<path opacity="0.51" d="M166.074 42.8765C166.074 42.8765 205.339 57.6405 242.689 41.767L233.368 26H218.5L212.825 12.5H202.509L202.624 0H200L201.483 12.5155L191.725 12.978L188.09 26.7105L173.348 26.5085L166.074 42.8765Z" fill="#424242"/>
<path d="M0 317.137L400 321.48V318.5L0 316.708V317.137Z" fill="#DAD7D7"/>
<path d="M400 345.834L0 344.074V341.5L400 345.401V345.834Z" fill="#DDDADA"/>
<path d="M114.688 76L124 338.5H138.5L120.732 76H114.688Z" fill="#989A9D"/>
<path d="M133.455 338.5L114.774 61.5H273L255.29 338.5H133.455Z" fill="#CCCCCC"/>
<path d="M124 76H258.5L244.982 326.5H142.652L124 76Z" fill="#F2F2F2"/>
<path d="M305.472 205.131C305.472 205.131 311.615 211.41 316.801 207.28L316.791 212.3C316.791 212.3 307.569 209.742 305.472 215.574C303.168 221.986 305.472 205.131 305.472 205.131Z" fill="#999999"/>
<path d="M317.201 224.675C317.201 224.675 313.126 203.601 317.201 194.809C317.201 194.809 327.569 212.466 317.201 224.675Z" fill="#999999"/>
<path d="M312.65 68.1395L350.838 85.438L315.5 338.5L341.228 361.254L292.78 364.284L312.65 68.1395Z" fill="#989A9D"/>
<path d="M258.5 77.881L305.129 34.483L287.152 369.25L245.094 326.5L258.5 77.881Z" fill="#E6E6E6"/>
<path d="M305 34.5H315.5L298.259 369.5H287L305 34.5Z" fill="#B3B3B3"/>
<path d="M264.285 84.179L295.044 57.3895L287 209.197L258.5 200L264.285 84.179Z" stroke="#999999" stroke-width="2" stroke-miterlimit="10"/>
<path d="M258.5 209.197L287.115 218.175L281.651 356.504L251.134 326.5L258.5 209.197Z" stroke="#999999" stroke-width="2" stroke-miterlimit="10"/>
<path d="M144.876 194.18L144.883 192.649V191.814C144.883 191.375 144.703 190.75 144.341 189.939C144.063 189.329 143.875 188.926 143.777 188.731L143.536 188.248C142.906 186.929 142.354 186.111 141.88 185.794H144.832C144.798 185.892 144.781 186.016 144.781 186.167C144.781 186.319 144.793 186.48 144.817 186.651C144.842 186.817 144.874 186.988 144.913 187.164C144.986 187.5 145.081 187.811 145.198 188.094L145.55 188.943C145.672 189.227 145.823 189.515 146.004 189.808C146.233 189.461 146.417 189.122 146.553 188.79L146.832 188.101C147.11 187.393 147.249 186.719 147.249 186.08C147.249 185.972 147.242 185.877 147.227 185.794H149.241C148.973 186.077 148.692 186.49 148.399 187.032C148.106 187.574 147.901 187.967 147.784 188.211L147.41 189.024C146.902 190.147 146.648 191.045 146.648 191.719V195.066C146.648 195.564 146.707 195.923 146.824 196.143C146.941 196.363 147.066 196.534 147.198 196.656C147.33 196.778 147.488 196.893 147.674 197H143.931C144.561 196.678 144.876 196.089 144.876 195.235V194.18ZM152.735 190.188C152.295 190.188 151.978 190.408 151.783 190.848C151.592 191.287 151.497 192.027 151.497 193.067C151.497 195.298 151.91 196.414 152.735 196.414C153.174 196.414 153.489 196.116 153.68 195.521C153.875 194.925 153.973 194.107 153.973 193.067C153.973 192.027 153.875 191.287 153.68 190.848C153.489 190.408 153.174 190.188 152.735 190.188ZM149.651 192.789C149.651 190.567 150.679 189.456 152.735 189.456C154.791 189.456 155.818 190.567 155.818 192.789C155.818 194.136 155.535 195.203 154.969 195.989C154.417 196.761 153.672 197.146 152.735 197.146C151.797 197.146 151.053 196.761 150.501 195.989C149.935 195.203 149.651 194.136 149.651 192.789ZM163.582 190.291L163.472 193.565C163.472 194.898 163.589 195.813 163.824 196.312C163.907 196.492 164.053 196.722 164.263 197H162.227C162.115 196.668 162.042 196.248 162.007 195.74C161.441 196.678 160.711 197.146 159.817 197.146C159.202 197.146 158.731 196.917 158.404 196.458C158.082 196.014 157.92 195.403 157.92 194.627V193.638C157.92 193.418 157.92 193.194 157.92 192.964L157.906 192.298C157.901 191.873 157.886 191.543 157.862 191.309C157.842 191.07 157.818 190.872 157.789 190.716C157.764 190.555 157.732 190.413 157.693 190.291C157.654 190.164 157.61 190.047 157.562 189.939L157.4 189.603H159.517C159.522 189.681 159.524 189.754 159.524 189.822V190.035C159.524 190.035 159.483 191.26 159.4 193.711C159.4 194.429 159.446 194.917 159.539 195.176C159.632 195.435 159.742 195.621 159.869 195.733C160 195.845 160.174 195.901 160.389 195.901C160.97 195.901 161.441 195.584 161.802 194.949C161.9 194.769 161.98 194.585 162.044 194.4C162.054 194.126 162.059 193.816 162.059 193.47C162.059 191.688 161.927 190.511 161.663 189.939L161.502 189.603H163.589C163.584 189.725 163.582 189.837 163.582 189.939V190.291ZM172.781 187.764L172.789 195.059C172.793 195.337 172.825 195.547 172.884 195.689C172.942 195.831 173.064 195.901 173.25 195.901C174.119 195.901 174.795 195.35 175.279 194.246C175.748 193.172 175.982 191.683 175.982 189.778C175.982 188.777 175.865 188.018 175.63 187.5C175.313 186.802 174.761 186.453 173.975 186.453C173.472 186.453 173.162 186.512 173.045 186.629C172.933 186.746 172.859 186.893 172.825 187.068C172.796 187.239 172.781 187.471 172.781 187.764ZM170.745 197C170.901 196.629 170.992 196.319 171.016 196.07C171.045 195.821 171.07 195.555 171.089 195.271C171.128 194.695 171.148 193.921 171.148 192.95C171.148 191.773 171.128 190.699 171.089 189.727L171.009 187.713C170.989 187.205 170.945 186.851 170.877 186.651C170.77 186.333 170.594 186.048 170.35 185.794H174.371C176.041 185.794 177.132 186.451 177.645 187.764C177.825 188.228 177.916 188.79 177.916 189.449C177.916 193.135 176.666 195.484 174.166 196.495C173.321 196.836 172.327 197.007 171.185 197.007C171.111 197.007 171.038 197.007 170.965 197.007C170.892 197.007 170.818 197.005 170.745 197ZM182.676 190.188C182.237 190.188 181.919 190.408 181.724 190.848C181.534 191.287 181.438 192.027 181.438 193.067C181.438 195.298 181.851 196.414 182.676 196.414C183.116 196.414 183.431 196.116 183.621 195.521C183.816 194.925 183.914 194.107 183.914 193.067C183.914 192.027 183.816 191.287 183.621 190.848C183.431 190.408 183.116 190.188 182.676 190.188ZM179.593 192.789C179.593 190.567 180.621 189.456 182.676 189.456C184.732 189.456 185.76 190.567 185.76 192.789C185.76 194.136 185.477 195.203 184.91 195.989C184.358 196.761 183.614 197.146 182.676 197.146C181.739 197.146 180.994 196.761 180.442 195.989C179.876 195.203 179.593 194.136 179.593 192.789ZM187.598 197C187.823 196.229 187.935 194.903 187.935 193.023C187.935 191.685 187.818 190.772 187.583 190.284C187.525 190.162 187.459 190.047 187.386 189.939L187.144 189.603H189.686C189.612 189.847 189.563 190.076 189.539 190.291L189.48 190.818C190.071 189.91 190.823 189.456 191.736 189.456C192.327 189.456 192.789 189.686 193.121 190.145C193.443 190.594 193.604 191.202 193.604 191.968V192.752C193.604 194.095 193.616 194.915 193.641 195.213C193.665 195.511 193.685 195.738 193.699 195.894C193.714 196.05 193.731 196.189 193.75 196.312C193.785 196.541 193.836 196.771 193.904 197H191.758C191.983 196.229 192.095 194.903 192.095 193.023C192.095 192.271 192.046 191.756 191.949 191.478C191.856 191.199 191.744 191.001 191.612 190.884C191.48 190.762 191.307 190.701 191.092 190.701C190.696 190.701 190.337 190.857 190.015 191.17C189.737 191.438 189.524 191.78 189.378 192.195C189.368 192.327 189.363 192.464 189.363 192.605V193.023C189.363 194.903 189.476 196.229 189.7 197H187.598ZM198.394 187.142C198.487 187.503 198.533 187.764 198.533 187.925C198.533 188.526 198.46 189.021 198.313 189.412C198.172 189.798 198.021 190.12 197.859 190.379C197.537 190.887 197.21 191.238 196.878 191.434C196.829 191.404 196.763 191.36 196.68 191.302L196.431 191.126C196.851 190.521 197.061 189.761 197.061 188.848C197.061 188.331 196.912 187.854 196.614 187.42C196.531 187.303 196.448 187.21 196.365 187.142H198.394ZM203.082 186.673C202.979 187.049 202.928 187.5 202.928 188.028C202.928 188.55 202.938 188.885 202.957 189.031C202.981 189.178 203.018 189.295 203.067 189.383C203.16 189.529 203.34 189.603 203.609 189.603H205.572C205.572 189.876 205.506 190.086 205.374 190.232C205.135 190.496 204.842 190.628 204.495 190.628C204.324 190.628 204.173 190.604 204.041 190.555C203.802 190.457 203.616 190.408 203.484 190.408C203.353 190.408 203.245 190.435 203.162 190.489C203.079 190.538 203.013 190.611 202.964 190.708C202.876 190.884 202.833 191.268 202.833 191.858C202.833 192.449 202.85 193.055 202.884 193.675C202.923 194.295 203.016 194.815 203.162 195.235C203.309 195.65 203.531 195.962 203.829 196.172C204.126 196.382 204.537 196.487 205.059 196.487C205.059 196.639 204.957 196.819 204.751 197.029C204.698 197.088 204.651 197.127 204.612 197.146C203.748 197.146 203.101 197.044 202.671 196.839C202.178 196.595 201.827 196.16 201.617 195.535C201.407 194.9 201.302 193.96 201.302 192.715C201.302 191.626 201.272 190.984 201.214 190.789C201.155 190.589 201.102 190.457 201.053 190.394C200.994 190.32 200.853 190.23 200.628 190.123C200.931 189.893 201.231 189.466 201.529 188.841L201.895 188.072C202.154 187.486 202.374 187.107 202.554 186.937C202.74 186.761 202.916 186.673 203.082 186.673ZM216.712 192.642L216.705 190.635C216.705 190.362 216.661 190.176 216.573 190.079C216.412 189.898 216.114 189.808 215.679 189.808H214.522C213.917 189.808 213.584 189.979 213.526 190.32C213.511 190.418 213.504 190.523 213.504 190.635L213.497 192.833C213.497 194.727 213.594 195.914 213.79 196.392C213.868 196.578 213.99 196.78 214.156 197H211.409C211.565 196.629 211.656 196.319 211.68 196.07C211.709 195.821 211.739 195.513 211.768 195.147C211.822 194.38 211.849 193.504 211.849 192.518C211.849 191.531 211.846 190.853 211.841 190.481C211.836 190.105 211.832 189.739 211.827 189.383C211.792 187.903 211.746 187.017 211.688 186.724C211.629 186.426 211.58 186.226 211.541 186.124L211.409 185.794H214.156C213.804 186.185 213.609 186.712 213.57 187.376C213.555 187.576 213.548 187.786 213.548 188.006C213.548 188.226 213.567 188.399 213.606 188.526C213.65 188.648 213.721 188.738 213.819 188.797C213.951 188.885 214.261 188.929 214.749 188.929H215.445C215.943 188.929 216.25 188.892 216.368 188.819C216.563 188.692 216.661 188.416 216.661 187.991C216.661 186.951 216.456 186.219 216.045 185.794H218.792C218.646 186.116 218.555 186.414 218.521 186.688C218.492 186.961 218.47 187.225 218.455 187.479C218.44 187.728 218.426 188.018 218.411 188.35C218.396 188.682 218.384 189.026 218.375 189.383C218.36 190.213 218.353 190.965 218.353 191.639C218.353 194.378 218.455 196.055 218.66 196.67C218.694 196.773 218.738 196.883 218.792 197H216.045C216.29 196.673 216.438 196.392 216.492 196.158C216.546 195.918 216.587 195.638 216.617 195.315C216.68 194.695 216.712 193.804 216.712 192.642ZM225.889 193.089L225.867 194.495C225.867 195.369 225.948 195.965 226.109 196.282C226.207 196.473 226.321 196.619 226.453 196.722L226.797 197H224.673L224.446 196.15C223.895 196.814 223.108 197.146 222.088 197.146C221.507 197.146 221.038 196.951 220.682 196.561C220.369 196.209 220.213 195.794 220.213 195.315C220.213 194.837 220.325 194.419 220.55 194.063C220.779 193.707 221.08 193.411 221.451 193.177C222.183 192.723 223.104 192.486 224.212 192.466V192.386C224.212 191.199 224.029 190.503 223.663 190.298C223.531 190.225 223.36 190.188 223.15 190.188C222.945 190.188 222.74 190.257 222.535 190.394C222.33 190.53 222.144 190.706 221.978 190.921C221.646 191.355 221.409 191.868 221.268 192.459C220.833 192.2 220.616 191.705 220.616 190.972C220.616 190.674 220.655 190.34 220.733 189.969C220.918 189.969 221.094 189.942 221.26 189.888L221.824 189.712C222.376 189.542 222.916 189.456 223.443 189.456C223.97 189.456 224.39 189.534 224.703 189.69C225.02 189.847 225.267 190.079 225.442 190.386C225.74 190.909 225.889 191.81 225.889 193.089ZM221.795 195.462C221.795 195.765 221.863 195.999 222 196.165C222.142 196.331 222.317 196.414 222.527 196.414C222.737 196.414 222.94 196.36 223.135 196.253C223.331 196.141 223.506 195.989 223.663 195.799C224.029 195.364 224.212 194.854 224.212 194.268V193.184C223.528 193.248 222.964 193.475 222.52 193.865C222.037 194.285 221.795 194.817 221.795 195.462ZM229.639 189.603C229.551 189.817 229.507 190.054 229.507 190.313C229.507 190.567 229.527 190.794 229.566 190.994C229.605 191.189 229.659 191.419 229.727 191.683L230.518 194.495L230.796 195.396C231.084 194.532 231.275 193.948 231.368 193.646L231.631 192.752C231.919 191.771 232.063 191.163 232.063 190.928C232.063 190.694 232.051 190.523 232.027 190.416C232.007 190.303 231.978 190.203 231.939 190.115C231.89 189.983 231.795 189.812 231.653 189.603H234.319C233.958 190.101 233.716 190.474 233.594 190.723L233.323 191.28C233.279 191.368 233.218 191.495 233.14 191.661C232.183 193.843 231.705 195.306 231.705 196.048C231.705 196.385 231.768 196.702 231.895 197H229.258C229.375 196.814 229.444 196.641 229.463 196.48C229.488 196.314 229.5 196.146 229.5 195.975C229.5 195.799 229.456 195.547 229.368 195.22C229.28 194.893 229.166 194.522 229.024 194.107C228.882 193.692 228.719 193.255 228.533 192.796C228.353 192.332 228.167 191.89 227.977 191.47C227.547 190.528 227.2 189.905 226.937 189.603H229.639ZM240.567 194.51C240.743 194.627 240.831 194.832 240.831 195.125C240.831 195.413 240.792 195.667 240.713 195.887C240.635 196.106 240.499 196.312 240.303 196.502C239.864 196.932 239.195 197.146 238.296 197.146C237.251 197.146 236.456 196.761 235.909 195.989C235.425 195.301 235.184 194.371 235.184 193.199C235.184 192.017 235.511 191.089 236.165 190.416C236.785 189.776 237.625 189.456 238.685 189.456C239.422 189.456 239.998 189.671 240.413 190.101C240.74 190.442 240.904 190.838 240.904 191.287C240.904 191.731 240.816 192.134 240.64 192.496C240.469 192.852 240.215 193.16 239.878 193.418C239.185 193.956 238.216 194.239 236.971 194.268C237.073 195.25 237.381 195.906 237.894 196.238C238.079 196.355 238.326 196.414 238.633 196.414C238.941 196.414 239.268 196.253 239.615 195.931C239.961 195.608 240.279 195.135 240.567 194.51ZM236.927 193.572C238.47 193.47 239.241 192.723 239.241 191.331C239.241 190.809 239.085 190.457 238.772 190.276C238.665 190.218 238.523 190.188 238.348 190.188C238.172 190.188 237.994 190.242 237.813 190.35C237.637 190.457 237.483 190.633 237.352 190.877C237.068 191.409 236.927 192.232 236.927 193.345V193.572ZM161.7 212.089L161.678 213.495C161.678 214.369 161.758 214.965 161.919 215.282C162.017 215.473 162.132 215.619 162.264 215.722L162.608 216H160.484L160.257 215.15C159.705 215.814 158.919 216.146 157.898 216.146C157.317 216.146 156.849 215.951 156.492 215.561C156.18 215.209 156.023 214.794 156.023 214.315C156.023 213.837 156.136 213.419 156.36 213.063C156.59 212.707 156.89 212.411 157.261 212.177C157.994 211.723 158.914 211.486 160.022 211.466V211.386C160.022 210.199 159.839 209.503 159.473 209.298C159.341 209.225 159.17 209.188 158.96 209.188C158.755 209.188 158.55 209.257 158.345 209.394C158.14 209.53 157.955 209.706 157.789 209.921C157.457 210.355 157.22 210.868 157.078 211.459C156.644 211.2 156.426 210.705 156.426 209.972C156.426 209.674 156.465 209.34 156.543 208.969C156.729 208.969 156.905 208.942 157.071 208.888L157.635 208.712C158.187 208.542 158.726 208.456 159.253 208.456C159.781 208.456 160.201 208.534 160.513 208.69C160.831 208.847 161.077 209.079 161.253 209.386C161.551 209.909 161.7 210.81 161.7 212.089ZM157.605 214.462C157.605 214.765 157.674 214.999 157.811 215.165C157.952 215.331 158.128 215.414 158.338 215.414C158.548 215.414 158.75 215.36 158.946 215.253C159.141 215.141 159.317 214.989 159.473 214.799C159.839 214.364 160.022 213.854 160.022 213.268V212.184C159.339 212.248 158.775 212.475 158.331 212.865C157.847 213.285 157.605 213.817 157.605 214.462ZM171.814 209.042C171.248 209.042 170.965 209.376 170.965 210.045C170.965 212.819 171.011 214.452 171.104 214.945C171.158 215.243 171.226 215.465 171.309 215.612L171.529 216H168.929C169.085 215.629 169.175 215.319 169.2 215.07C169.229 214.821 169.253 214.555 169.273 214.271C169.312 213.695 169.332 212.921 169.332 211.95C169.332 210.773 169.312 209.699 169.273 208.727L169.192 206.713C169.173 206.205 169.129 205.851 169.061 205.651C168.953 205.333 168.777 205.048 168.533 204.794H172.408C173.589 204.794 174.444 204.911 174.971 205.146C175.528 205.39 175.806 205.807 175.806 206.398C175.806 206.916 175.613 207.401 175.228 207.855C174.866 208.275 174.393 208.61 173.807 208.859C173.88 210.734 174.468 212.533 175.572 214.257C176.045 215.004 176.529 215.585 177.022 216H174.275C173.797 215.346 173.355 214.02 172.95 212.023C172.813 211.33 172.723 210.753 172.679 210.294C172.64 209.835 172.605 209.56 172.576 209.467C172.552 209.369 172.51 209.291 172.452 209.232C172.334 209.105 172.122 209.042 171.814 209.042ZM173.499 207.738C173.636 207.592 173.731 207.436 173.785 207.27C173.843 207.104 173.873 206.945 173.873 206.793C173.873 206.637 173.851 206.483 173.807 206.332C173.768 206.176 173.687 206.039 173.565 205.922C173.296 205.658 172.828 205.526 172.159 205.526C171.91 205.526 171.707 205.536 171.551 205.556C171.399 205.575 171.28 205.629 171.192 205.717C171.041 205.863 170.965 206.237 170.965 206.837C170.965 207.365 171.021 207.702 171.133 207.848C171.333 208.107 171.636 208.236 172.042 208.236C172.447 208.236 172.757 208.19 172.972 208.097C173.191 208 173.367 207.88 173.499 207.738ZM180.538 209.188C180.098 209.188 179.781 209.408 179.585 209.848C179.395 210.287 179.3 211.027 179.3 212.067C179.3 214.298 179.712 215.414 180.538 215.414C180.977 215.414 181.292 215.116 181.482 214.521C181.678 213.925 181.775 213.107 181.775 212.067C181.775 211.027 181.678 210.287 181.482 209.848C181.292 209.408 180.977 209.188 180.538 209.188ZM177.454 211.789C177.454 209.567 178.482 208.456 180.538 208.456C182.593 208.456 183.621 209.567 183.621 211.789C183.621 213.136 183.338 214.203 182.771 214.989C182.22 215.761 181.475 216.146 180.538 216.146C179.6 216.146 178.855 215.761 178.304 214.989C177.737 214.203 177.454 213.136 177.454 211.789ZM188.624 209.188C188.184 209.188 187.867 209.408 187.671 209.848C187.481 210.287 187.386 211.027 187.386 212.067C187.386 214.298 187.798 215.414 188.624 215.414C189.063 215.414 189.378 215.116 189.568 214.521C189.764 213.925 189.861 213.107 189.861 212.067C189.861 211.027 189.764 210.287 189.568 209.848C189.378 209.408 189.063 209.188 188.624 209.188ZM185.54 211.789C185.54 209.567 186.568 208.456 188.624 208.456C190.679 208.456 191.707 209.567 191.707 211.789C191.707 213.136 191.424 214.203 190.857 214.989C190.306 215.761 189.561 216.146 188.624 216.146C187.686 216.146 186.941 215.761 186.39 214.989C185.823 214.203 185.54 213.136 185.54 211.789ZM193.729 216C193.953 215.229 194.065 213.903 194.065 212.023C194.065 210.685 193.948 209.772 193.714 209.284C193.655 209.162 193.589 209.047 193.516 208.939L193.274 208.603H195.816C195.743 208.891 195.694 209.12 195.669 209.291L195.618 209.73C196.185 208.881 196.905 208.456 197.779 208.456C198.658 208.456 199.227 208.932 199.485 209.884C199.871 209.225 200.381 208.788 201.016 208.573C201.241 208.495 201.492 208.456 201.771 208.456C202.054 208.456 202.308 208.517 202.532 208.639C202.762 208.756 202.955 208.925 203.111 209.145C203.418 209.589 203.572 210.197 203.572 210.968V211.752C203.572 213.246 203.592 214.184 203.631 214.564C203.675 214.94 203.707 215.189 203.726 215.312C203.755 215.526 203.804 215.756 203.873 216H201.712C201.927 215.263 202.034 213.937 202.034 212.023C202.034 211.247 201.995 210.727 201.917 210.463C201.839 210.194 201.736 210.001 201.609 209.884C201.487 209.762 201.319 209.701 201.104 209.701C200.474 209.701 199.974 210.072 199.603 210.814V211.752C199.603 213.246 199.622 214.184 199.661 214.564C199.705 214.94 199.737 215.189 199.756 215.312C199.786 215.526 199.834 215.756 199.903 216H197.742C197.962 215.248 198.072 213.922 198.072 212.023C198.072 211.227 198.033 210.702 197.955 210.448C197.876 210.189 197.776 210.001 197.654 209.884C197.532 209.762 197.364 209.701 197.149 209.701C196.939 209.701 196.749 209.743 196.578 209.826C196.407 209.909 196.253 210.019 196.116 210.155C195.857 210.409 195.655 210.736 195.508 211.137C195.499 211.278 195.494 211.425 195.494 211.576V212.023C195.494 213.903 195.606 215.229 195.831 216H193.729ZM199.361 211.459L199.332 211.591L199.361 211.459ZM212.317 213.18L212.325 211.649V210.814C212.325 210.375 212.144 209.75 211.783 208.939C211.504 208.329 211.316 207.926 211.219 207.731L210.977 207.248C210.347 205.929 209.795 205.111 209.322 204.794H212.273C212.239 204.892 212.222 205.016 212.222 205.167C212.222 205.319 212.234 205.48 212.259 205.651C212.283 205.817 212.315 205.988 212.354 206.164C212.427 206.5 212.522 206.811 212.64 207.094L212.991 207.943C213.113 208.227 213.265 208.515 213.445 208.808C213.675 208.461 213.858 208.122 213.995 207.79L214.273 207.101C214.551 206.393 214.69 205.719 214.69 205.08C214.69 204.972 214.683 204.877 214.668 204.794H216.683C216.414 205.077 216.133 205.49 215.84 206.032C215.547 206.574 215.342 206.967 215.225 207.211L214.852 208.024C214.344 209.147 214.09 210.045 214.09 210.719V214.066C214.09 214.564 214.148 214.923 214.266 215.143C214.383 215.363 214.507 215.534 214.639 215.656C214.771 215.778 214.93 215.893 215.115 216H211.373C212.002 215.678 212.317 215.089 212.317 214.235V213.18ZM222.066 213.51C222.242 213.627 222.33 213.832 222.33 214.125C222.33 214.413 222.291 214.667 222.212 214.887C222.134 215.106 221.998 215.312 221.802 215.502C221.363 215.932 220.694 216.146 219.795 216.146C218.75 216.146 217.955 215.761 217.408 214.989C216.924 214.301 216.683 213.371 216.683 212.199C216.683 211.017 217.01 210.089 217.664 209.416C218.284 208.776 219.124 208.456 220.184 208.456C220.921 208.456 221.497 208.671 221.912 209.101C222.239 209.442 222.403 209.838 222.403 210.287C222.403 210.731 222.315 211.134 222.139 211.496C221.968 211.852 221.714 212.16 221.377 212.418C220.684 212.956 219.715 213.239 218.47 213.268C218.572 214.25 218.88 214.906 219.393 215.238C219.578 215.355 219.825 215.414 220.132 215.414C220.44 215.414 220.767 215.253 221.114 214.931C221.46 214.608 221.778 214.135 222.066 213.51ZM218.426 212.572C219.969 212.47 220.74 211.723 220.74 210.331C220.74 209.809 220.584 209.457 220.271 209.276C220.164 209.218 220.022 209.188 219.847 209.188C219.671 209.188 219.493 209.242 219.312 209.35C219.136 209.457 218.982 209.633 218.851 209.877C218.567 210.409 218.426 211.232 218.426 212.345V212.572ZM226.094 205.673C225.992 206.049 225.94 206.5 225.94 207.028C225.94 207.55 225.95 207.885 225.97 208.031C225.994 208.178 226.031 208.295 226.08 208.383C226.172 208.529 226.353 208.603 226.622 208.603H228.584C228.584 208.876 228.519 209.086 228.387 209.232C228.147 209.496 227.854 209.628 227.508 209.628C227.337 209.628 227.186 209.604 227.054 209.555C226.814 209.457 226.629 209.408 226.497 209.408C226.365 209.408 226.258 209.435 226.175 209.489C226.092 209.538 226.026 209.611 225.977 209.708C225.889 209.884 225.845 210.268 225.845 210.858C225.845 211.449 225.862 212.055 225.896 212.675C225.936 213.295 226.028 213.815 226.175 214.235C226.321 214.65 226.543 214.962 226.841 215.172C227.139 215.382 227.549 215.487 228.072 215.487C228.072 215.639 227.969 215.819 227.764 216.029C227.71 216.088 227.664 216.127 227.625 216.146C226.761 216.146 226.114 216.044 225.684 215.839C225.191 215.595 224.839 215.16 224.629 214.535C224.419 213.9 224.314 212.96 224.314 211.715C224.314 210.626 224.285 209.984 224.227 209.789C224.168 209.589 224.114 209.457 224.065 209.394C224.007 209.32 223.865 209.23 223.641 209.123C223.943 208.893 224.244 208.466 224.542 207.841L224.908 207.072C225.167 206.486 225.386 206.107 225.567 205.937C225.752 205.761 225.928 205.673 226.094 205.673Z" fill="#999999"/>
</svg>
