<svg width="25" height="24" viewBox="0 0 25 24" fill="none" xmlns="http://www.w3.org/2000/svg">
<g clip-path="url(#clip0_30_424)">
<path fill-rule="evenodd" clip-rule="evenodd" d="M16.25 3.76998V20.23C16.2499 20.4478 16.2024 20.663 16.1107 20.8606C16.0191 21.0583 15.8855 21.2335 15.7192 21.3743C15.5529 21.515 15.358 21.6179 15.148 21.6757C14.938 21.7335 14.7179 21.7449 14.503 21.709L5.921 20.279C5.45401 20.2011 5.02979 19.9601 4.72381 19.5988C4.41784 19.2375 4.24994 18.7794 4.25 18.306V5.69398C4.24994 5.22055 4.41784 4.76244 4.72381 4.40116C5.02979 4.03988 5.45401 3.79886 5.921 3.72098L14.503 2.29098C14.7179 2.2551 14.9381 2.26648 15.1482 2.32434C15.3583 2.38219 15.5533 2.48514 15.7196 2.626C15.8859 2.76686 16.0195 2.94227 16.1111 3.14C16.2027 3.33774 16.2501 3.55306 16.25 3.77098V3.76998ZM18.25 4.99998C18.7546 4.99982 19.2406 5.19039 19.6105 5.53348C19.9805 5.87657 20.2072 6.34683 20.245 6.84998L20.25 6.99998V17C20.2502 17.5046 20.0596 17.9906 19.7165 18.3605C19.3734 18.7305 18.9032 18.9571 18.4 18.995L18.25 19H17.25V4.99998H18.25ZM11.75 10.5C11.3522 10.5 10.9706 10.658 10.6893 10.9393C10.408 11.2206 10.25 11.6022 10.25 12C10.25 12.3978 10.408 12.7793 10.6893 13.0606C10.9706 13.3419 11.3522 13.5 11.75 13.5C12.1478 13.5 12.5294 13.3419 12.8107 13.0606C13.092 12.7793 13.25 12.3978 13.25 12C13.25 11.6022 13.092 11.2206 12.8107 10.9393C12.5294 10.658 12.1478 10.5 11.75 10.5Z" fill="white"/>
</g>
<defs>
<clipPath id="clip0_30_424">
<rect width="24" height="24" fill="white" transform="translate(0.25)"/>
</clipPath>
</defs>
</svg>
